<?xml version="1.0" standalone="no"?><!DOCTYPE svg PUBLIC "-//W3C//DTD SVG 1.1//EN" "http://www.w3.org/Graphics/SVG/1.1/DTD/svg11.dtd"><svg class="icon" width="200px" height="200.00px" viewBox="0 0 1024 1024" version="1.1" xmlns="http://www.w3.org/2000/svg"><path  d="M197.12 789.76L140.8 428.8h42.24l46.72 300.8h3.84l167.68-300.8h49.92l-209.28 360.96zM437.76 789.76L512 428.8h45.44l-73.6 360.96zM778.24 428.8a96.64 96.64 0 0 1 103.68 97.28 133.12 133.12 0 0 1-143.36 135.04h-90.24l-27.52 128H576l75.52-360.32z m-121.6 192h78.72a88.32 88.32 0 0 0 99.84-90.24c0-39.04-28.16-64-72.32-64h-73.6zM992 896H32a32 32 0 0 1-32-32v-704A32 32 0 0 1 32 128h960a32 32 0 0 1 32 32v704a32 32 0 0 1-32 32zM64 832h896V192H64zM992 384H32a32 32 0 0 1 0-64h960a32 32 0 0 1 0 64z" /></svg>