<?xml version="1.0" standalone="no"?><!DOCTYPE svg PUBLIC "-//W3C//DTD SVG 1.1//EN" "http://www.w3.org/Graphics/SVG/1.1/DTD/svg11.dtd"><svg class="icon" width="200px" height="200.00px" viewBox="0 0 1024 1024" version="1.1" xmlns="http://www.w3.org/2000/svg"><path  d="M76.8 832a32 32 0 0 1-32-32v-640a32 32 0 0 1 32-32h864a32 32 0 0 1 0 64h-832v608a32 32 0 0 1-32 32zM913.92 388.48H103.68a32 32 0 0 1-32-32 32 32 0 0 1 32-32h810.24a32 32 0 0 1 32 32 32 32 0 0 1-32 32zM524.8 836.48h-448a32 32 0 0 1-32-32 32 32 0 0 1 32-32h448a32 32 0 0 1 32 32 32 32 0 0 1-32 32zM940.8 448a32 32 0 0 1-32-32v-256a32 32 0 0 1 64 0v256a32 32 0 0 1-32 32zM940.8 722.56h-256a32 32 0 0 1-32-32 32 32 0 0 1 32-32h256a32 32 0 0 1 32 32 32 32 0 0 1-32 32zM940.8 813.44h-256a32 32 0 0 1-32-32 32 32 0 0 1 32-32h256a32 32 0 0 1 32 32 32 32 0 0 1-32 32zM812.8 923.52a32 32 0 0 1-32-32v-183.04a32 32 0 0 1 64 0v183.04a32 32 0 0 1-32 32zM812.8 722.56a30.72 30.72 0 0 1-21.12-8.32 31.36 31.36 0 0 1 0-44.8l128-146.56a32 32 0 0 1 48.64 42.24l-128 145.92a31.36 31.36 0 0 1-27.52 11.52zM812.8 722.56a31.36 31.36 0 0 1-24.32-11.52l-128-145.92a32 32 0 1 1 48.64-42.24l128 146.56a31.36 31.36 0 0 1-3.2 44.8 30.72 30.72 0 0 1-21.12 8.32z" /></svg>