<?xml version="1.0" standalone="no"?><!DOCTYPE svg PUBLIC "-//W3C//DTD SVG 1.1//EN" "http://www.w3.org/Graphics/SVG/1.1/DTD/svg11.dtd"><svg class="icon" width="200px" height="200.00px" viewBox="0 0 1024 1024" version="1.1" xmlns="http://www.w3.org/2000/svg"><path  d="M512 768a32 32 0 0 1-32-32v-320a32 32 0 0 1 64 0v320a32 32 0 0 1-32 32zM896 768a32 32 0 0 1-32-32V640h-704v96a32 32 0 0 1-64 0v-128A32 32 0 0 1 128 576h768a32 32 0 0 1 32 32v128a32 32 0 0 1-32 32zM640 320H384a32 32 0 0 1-32-32v-256A32 32 0 0 1 384 0h256a32 32 0 0 1 32 32v256a32 32 0 0 1-32 32zM416 256h192V64h-192zM896 928m-96 0a96 96 0 1 0 192 0 96 96 0 1 0-192 0ZM512 928m-96 0a96 96 0 1 0 192 0 96 96 0 1 0-192 0ZM128 928m-96 0a96 96 0 1 0 192 0 96 96 0 1 0-192 0Z" /></svg>