<?xml version="1.0" standalone="no"?><!DOCTYPE svg PUBLIC "-//W3C//DTD SVG 1.1//EN" "http://www.w3.org/Graphics/SVG/1.1/DTD/svg11.dtd"><svg class="icon" width="200px" height="200.00px" viewBox="0 0 1024 1024" version="1.1" xmlns="http://www.w3.org/2000/svg"><path  d="M633.6 745.6h-384a32 32 0 0 1-32-32v-48a128 128 0 0 1 51.2-102.4l106.24-80a32 32 0 0 1 38.4 51.2L307.2 614.4a64 64 0 0 0-25.6 51.2v16h320v-16a64 64 0 0 0-25.6-51.2L469.76 534.4a32 32 0 0 1 38.4-51.2L614.4 563.2a128 128 0 0 1 51.2 102.4v48a32 32 0 0 1-32 32zM441.6 553.6a128 128 0 0 1-128-128V377.6a128 128 0 1 1 256 0v48a128 128 0 0 1-128 128z m0-240a64 64 0 0 0-64 64v48a64 64 0 0 0 128 0V377.6a64 64 0 0 0-64-64zM755.84 1024H57.6a32 32 0 0 1-32-32V32A32 32 0 0 1 57.6 0h698.24a119.04 119.04 0 0 1 119.04 119.04v785.92A119.04 119.04 0 0 1 755.84 1024zM89.6 960h666.24a55.68 55.68 0 0 0 55.04-55.04V119.04a55.68 55.68 0 0 0-55.04-55.04H89.6zM974.08 412.8a32 32 0 0 1-32-32V206.72a32 32 0 0 1 32-32 32 32 0 0 1 32 32V384a32 32 0 0 1-32 28.8z" /></svg>