<?xml version="1.0" standalone="no"?><!DOCTYPE svg PUBLIC "-//W3C//DTD SVG 1.1//EN" "http://www.w3.org/Graphics/SVG/1.1/DTD/svg11.dtd"><svg class="icon" width="200px" height="200.00px" viewBox="0 0 1024 1024" version="1.1" xmlns="http://www.w3.org/2000/svg"><path  d="M502.4 415.36v85.76h24.32c33.28 0 49.92-14.08 49.92-42.88s-16-42.88-49.28-42.88zM832 304V64a64 64 0 0 0-64-64H256a64 64 0 0 0-64 64v240H73.6V704H192v256a64 64 0 0 0 64 64h512a64 64 0 0 0 64-64v-256h117.76V304z m-64-224v224H256v-224z m-128 375.68a79.36 79.36 0 0 1-30.08 64 111.36 111.36 0 0 1-75.52 23.68h-32V640H448V371.2h88.96Q640 371.2 640 455.68zM225.92 576l-19.84 64h-64l99.84-268.8h67.2L404.48 640h-64L320 576zM512 992a32 32 0 0 1 0-64 32 32 0 0 1 0 64z m256-96H256v-192h512v192z m64-375.04a111.36 111.36 0 0 1-75.52 23.68h-28.8V640h-56.96V371.2h91.52c64 0 99.2 28.16 99.2 84.48a79.36 79.36 0 0 1-29.44 64z m-80.64-105.6h-24.96v85.76h24.32c33.28 0 49.92-14.08 49.92-42.88s-16-42.88-49.28-42.88z m-476.16 0a87.04 87.04 0 0 1-4.48 22.4l-32.64 95.36h71.04l-30.08-92.8a95.36 95.36 0 0 1-3.84-23.04z m0 0" /></svg>