<?xml version="1.0" standalone="no"?><!DOCTYPE svg PUBLIC "-//W3C//DTD SVG 1.1//EN" "http://www.w3.org/Graphics/SVG/1.1/DTD/svg11.dtd"><svg class="icon" width="200px" height="200.00px" viewBox="0 0 1024 1024" version="1.1" xmlns="http://www.w3.org/2000/svg"><path  d="M992 248.32h-303.36a32 32 0 0 1 0-64h303.36a32 32 0 0 1 0 64zM992 375.04h-303.36a32.64 32.64 0 0 1-32-32 32 32 0 0 1 32-32h303.36a32 32 0 0 1 32 32 32 32 0 0 1-32 32zM714.24 927.36H32A32 32 0 0 1 0 896v-85.76a201.6 201.6 0 0 1 81.28-161.92l188.16-142.08a32 32 0 1 1 38.4 51.2l-188.16 142.08A136.96 136.96 0 0 0 64 810.24v53.12h618.24v-53.12a138.88 138.88 0 0 0-55.68-110.72L438.4 557.44a32 32 0 0 1-6.4-44.8 32.64 32.64 0 0 1 44.8-6.4l188.16 142.08a203.52 203.52 0 0 1 81.28 161.92V896a32 32 0 0 1-32 31.36zM373.12 586.24A202.88 202.88 0 0 1 170.24 384V298.24a202.88 202.88 0 0 1 405.76 0V384a202.88 202.88 0 0 1-202.88 202.24z m0-426.24a138.88 138.88 0 0 0-138.88 138.24V384A138.88 138.88 0 0 0 512 384V298.24A138.24 138.24 0 0 0 373.12 160zM992 501.12h-303.36a32 32 0 0 1 0-64h303.36a32 32 0 0 1 0 64z" /></svg>