<?xml version="1.0" standalone="no"?><!DOCTYPE svg PUBLIC "-//W3C//DTD SVG 1.1//EN" "http://www.w3.org/Graphics/SVG/1.1/DTD/svg11.dtd"><svg class="icon" width="200px" height="200.00px" viewBox="0 0 1024 1024" version="1.1" xmlns="http://www.w3.org/2000/svg"><path  d="M736.11904 1024a288 288 0 1 1 288-288 288.64 288.64 0 0 1-288 288z m0-512a224 224 0 1 0 224 224A224 224 0 0 0 736.11904 512zM736.11904 896a32 32 0 0 1-32-32v-256a32 32 0 0 1 64 0v256a32 32 0 0 1-32 32zM864.11904 768h-256a32 32 0 0 1 0-64h256a32 32 0 0 1 0 64zM448.11904 1024H32.11904a32.64 32.64 0 0 1-23.68-10.24 33.28 33.28 0 0 1-8.32-24.96l64-640A32 32 0 0 1 96.11904 320h704a32 32 0 0 1 0 64H128.11904l-57.6 576H448.11904a32 32 0 0 1 0 64zM608.11904 384a32 32 0 0 1-32-32V192a128 128 0 0 0-256 0v160a32 32 0 0 1-64 0V192a192 192 0 0 1 384 0v160a32 32 0 0 1-32 32z" /></svg>