<?xml version="1.0" standalone="no"?><!DOCTYPE svg PUBLIC "-//W3C//DTD SVG 1.1//EN" "http://www.w3.org/Graphics/SVG/1.1/DTD/svg11.dtd"><svg class="icon" width="200px" height="200.00px" viewBox="0 0 1024 1024" version="1.1" xmlns="http://www.w3.org/2000/svg"><path d="M512 432a161.28 161.28 0 0 1-163.2-162.56c0-93.44 128-225.92 140.16-240.64a33.92 33.92 0 0 1 46.08 0c14.08 14.72 140.16 147.2 140.16 240.64A161.28 161.28 0 0 1 512 432z m0-333.44a375.68 375.68 0 0 0-99.2 170.88 99.2 99.2 0 0 0 198.4 0A372.48 372.48 0 0 0 512 98.56zM424.96 999.68H163.2a32 32 0 0 1-27.52-15.36L48 838.4A338.56 338.56 0 0 1 0 664.96V269.44a32 32 0 0 1 32-32 153.6 153.6 0 0 1 145.28 104.32l39.04 117.76a110.72 110.72 0 0 1 144 58.24l64 152.96a392.32 392.32 0 0 1 30.72 150.4v146.56a32.64 32.64 0 0 1-30.08 32z m-243.84-64h211.84v-114.56a320 320 0 0 0-25.6-124.8l-64-153.6a46.72 46.72 0 0 0-29.44-25.6 46.08 46.08 0 0 0-57.6 58.88l64 159.36a32 32 0 1 1-58.88 23.68l-64-158.72a108.8 108.8 0 0 1 7.04-94.72l-48-143.36A89.6 89.6 0 0 0 64 307.2v357.76a274.56 274.56 0 0 0 39.04 140.8zM860.8 999.68H599.04a32.64 32.64 0 0 1-32-32v-146.56a392.32 392.32 0 0 1 30.72-150.4l64-152.96a110.72 110.72 0 0 1 144-58.24l39.04-117.76a153.6 153.6 0 0 1 147.2-104.32 32 32 0 0 1 32 32v395.52a338.56 338.56 0 0 1-48 173.44l-87.68 145.92a32 32 0 0 1-27.52 15.36z m-229.76-64h211.84l78.08-128a274.56 274.56 0 0 0 39.04-140.8V307.2a89.6 89.6 0 0 0-52.48 55.04l-48 143.36a107.52 107.52 0 0 1 7.68 96l-64 159.36a30.72 30.72 0 0 1-40.96 17.92 31.36 31.36 0 0 1-17.92-41.6l64-159.36a45.44 45.44 0 0 0-17.28-55.04 43.52 43.52 0 0 0-38.4-5.76 46.72 46.72 0 0 0-29.44 25.6l-64 153.6a320 320 0 0 0-25.6 124.8z" /></svg>