<?xml version="1.0" standalone="no"?><!DOCTYPE svg PUBLIC "-//W3C//DTD SVG 1.1//EN" "http://www.w3.org/Graphics/SVG/1.1/DTD/svg11.dtd"><svg class="icon" width="200px" height="200.00px" viewBox="0 0 1024 1024" version="1.1" xmlns="http://www.w3.org/2000/svg"><path  d="M512 992a31.36 31.36 0 0 1-24.32-11.52L337.28 800H32A32 32 0 0 1 0 768V64A32 32 0 0 1 32 32h960a32 32 0 0 1 32 32v704a32 32 0 0 1-32 32h-305.28l-150.4 180.48a31.36 31.36 0 0 1-24.32 11.52z m-448-256h288a31.36 31.36 0 0 1 24.32 11.52L512 910.08l135.68-162.56a31.36 31.36 0 0 1 24.32-11.52H960v-640H64zM800 352h-576a32 32 0 0 1 0-64h576a32 32 0 0 1 0 64zM800 544h-576a32 32 0 0 1 0-64h576a32 32 0 0 1 0 64z" /></svg>