<?xml version="1.0" standalone="no"?><!DOCTYPE svg PUBLIC "-//W3C//DTD SVG 1.1//EN" "http://www.w3.org/Graphics/SVG/1.1/DTD/svg11.dtd"><svg class="icon" width="200px" height="200.00px" viewBox="0 0 1024 1024" version="1.1" xmlns="http://www.w3.org/2000/svg"><path  d="M512 1024H64a32 32 0 0 1-32-32V32A32 32 0 0 1 64 0h832a32 32 0 0 1 32 32v448a32 32 0 0 1-64 0V64h-768v896H512a32 32 0 0 1 0 64zM704 320H256a32 32 0 0 1-32-32A32 32 0 0 1 256 256h448a32 32 0 0 1 32 32 32 32 0 0 1-32 32zM448 704H256a32 32 0 0 1 0-64h192a32 32 0 0 1 0 64zM704 512H256a32 32 0 0 1 0-64h448a32 32 0 0 1 0 64zM800 1024a32 32 0 0 1-32-32v-320a32 32 0 0 1 64 0v320a32 32 0 0 1-32 32zM960 864h-320a32 32 0 0 1 0-64h320a32 32 0 0 1 0 64z" /></svg>